<svg width="31" height="33" viewBox="0 0 31 33" fill="none" xmlns="http://www.w3.org/2000/svg">
<g clip-path="url(#clip0_562_6)">
<path d="M19.4085 7.86678C18.4412 8.62933 17.3803 9.5553 16.491 10.5668C15.7811 9.69536 15.2429 9.14289 15.2429 9.14289C15.2429 9.14289 14.7515 9.64867 14.0884 10.4579C13.2069 9.46192 12.146 8.54374 11.1943 7.80453C11.3894 4.78543 15.2975 0.762558 15.2975 0.762558C15.2975 0.762558 19.2525 4.8399 19.4007 7.86678H19.4085Z" stroke="#B29D7E" stroke-width="1.98" stroke-linecap="round" stroke-linejoin="round"/>
<path d="M14.0957 10.4579C13.8305 10.7692 13.5574 11.1193 13.2688 11.5006C12.1299 13.0257 10.8818 15.0566 10.718 16.7996C9.14224 15.5935 7.13745 14.6442 5.68652 14.045C6.02195 10.3723 8.52598 5.92926 8.52598 5.92926C8.52598 5.92926 9.74289 6.66069 11.2016 7.80453C12.1533 8.54374 13.2142 9.46192 14.0957 10.4579Z" stroke="#B29D7E" stroke-width="1.98" stroke-linecap="round" stroke-linejoin="round"/>
<path d="M24.993 13.9283C23.5577 14.5041 21.4359 15.4846 19.7743 16.7295C19.5793 15.0255 18.378 13.0568 17.2625 11.5551C16.9895 11.1971 16.7321 10.8625 16.4902 10.5668C17.3717 9.55529 18.4404 8.62155 19.4077 7.86677C20.9054 6.68403 22.1691 5.92926 22.1691 5.92926C22.1691 5.92926 24.6186 10.2789 24.993 13.9283Z" stroke="#B29D7E" stroke-width="1.98" stroke-linecap="round" stroke-linejoin="round"/>
<path d="M19.7744 16.7373C18.8773 17.4065 18.1128 18.1613 17.6526 18.9861C17.4966 19.2662 17.3718 19.5619 17.286 19.8576C17.1611 20.2778 17.1065 20.7057 17.1065 21.1259C16.1471 19.7175 15.2422 18.6048 15.2422 18.6048C15.2422 18.6048 14.2827 19.7876 13.292 21.2582C13.292 21.2582 13.2894 21.2582 13.2842 21.2582C13.292 20.8691 13.2608 20.4723 13.1594 20.0832C13.0736 19.7097 12.941 19.3362 12.7381 18.9861C12.2935 18.2002 11.568 17.4688 10.71 16.8151C10.8816 15.0644 12.1219 13.0413 13.2608 11.5162C13.5494 11.1349 13.8224 10.7769 14.0877 10.4735C14.7429 9.67201 15.2422 9.15845 15.2422 9.15845C15.2422 9.15845 15.7804 9.71092 16.4903 10.5824C16.7321 10.8781 16.9895 11.2049 17.2626 11.5706C18.3781 13.0724 19.5716 15.041 19.7744 16.7451V16.7373Z" stroke="#B29D7E" stroke-width="1.98" stroke-linecap="round" stroke-linejoin="round"/>
<path d="M13.2843 21.2504C13.2843 21.2504 13.2843 21.266 13.2843 21.2738C12.278 22.7833 11.2327 24.5808 11.1547 25.7324L8.02665 20.6435L6.3807 22.3553L2.78458 21.266C2.48035 17.7022 3.74406 13.3136 3.74406 13.3136C3.74406 13.3136 4.54754 13.5704 5.67864 14.045C7.12957 14.6442 9.13435 15.6013 10.7101 16.7996C11.5604 17.4532 12.2858 18.1846 12.7383 18.9705C12.9411 19.3207 13.0737 19.6942 13.1595 20.0677C13.2609 20.4567 13.2921 20.8536 13.2843 21.2426V21.2504Z" stroke="#B29D7E" stroke-width="1.98" stroke-linecap="round" stroke-linejoin="round"/>
<path d="M27.5838 21.4605L24.6195 22.3631L22.9735 20.6513L19.2994 26.6272C19.2994 26.6272 19.2682 26.5883 19.2526 26.565C19.3228 26.3004 19.3618 26.0592 19.354 25.8335C19.315 24.6819 18.2385 22.8144 17.1932 21.2582C17.162 21.2115 17.1308 21.1648 17.0996 21.1181C17.0996 20.6902 17.1542 20.27 17.279 19.8498C17.3648 19.5541 17.4818 19.2584 17.6457 18.9783C18.1059 18.1613 18.8704 17.4065 19.7675 16.7295C21.429 15.4768 23.5508 14.5041 24.9861 13.9283C25.969 13.5315 26.6321 13.3214 26.6321 13.3214C26.6321 13.3214 27.9426 17.8656 27.576 21.4605H27.5838Z" stroke="#B29D7E" stroke-width="1.98" stroke-linecap="round" stroke-linejoin="round"/>
<path d="M19.3616 25.8335C19.3616 26.0592 19.3304 26.3082 19.2602 26.565C19.2368 26.6583 19.2056 26.7439 19.1744 26.8373L17.0838 30.2455C16.1633 31.4126 15.3131 32.2686 15.3131 32.2686H15.3053L13.9947 30.3544L11.4283 26.1759L11.1631 25.7324C11.2489 24.5808 12.2864 22.7755 13.2927 21.2738C13.3005 21.266 13.3083 21.2582 13.3083 21.2504C14.299 19.772 15.2585 18.597 15.2585 18.597C15.2585 18.597 16.1633 19.7097 17.1228 21.1181C17.154 21.1648 17.1852 21.2115 17.2164 21.2582C18.2617 22.8144 19.3382 24.6819 19.3772 25.8335H19.3616Z" stroke="#B29D7E" stroke-width="1.7" stroke-linecap="round" stroke-linejoin="round"/>
<path d="M15.2895 32.2608C15.2895 32.2608 15.2817 32.2608 15.2739 32.253C15.2349 32.2141 15.1491 32.1207 15.0243 31.9962C14.6889 31.6461 14.0882 31.0002 13.4563 30.2299C11.3424 29.6774 3.44024 27.2108 0.733398 20.6513L2.77718 21.2738L6.37331 22.3631L8.01926 20.6513L11.1473 25.7402L11.4126 26.1837L13.979 30.3622L15.2895 32.2686V32.2608Z" stroke="#B29D7E" stroke-width="1.89" stroke-linecap="round" stroke-linejoin="round"/>
<path d="M15.274 32.253C15.274 32.253 15.1492 32.1441 15.0244 31.9962C15.1492 32.1207 15.235 32.2141 15.274 32.253Z" stroke="#B29D7E" stroke-width="1.89" stroke-linecap="round" stroke-linejoin="round"/>
<path d="M30.2593 20.6513C27.1312 28.2457 17.0137 30.3544 17.0137 30.3544L17.0761 30.2532L19.1667 26.8451L19.2915 26.6272L22.9656 20.6513L24.6116 22.3631L27.5758 21.4605L30.2515 20.6513H30.2593Z" stroke="#B29D7E" stroke-width="1.89" stroke-linecap="round" stroke-linejoin="round"/>
<path d="M17.0136 30.3544C16.2648 31.8017 15.7577 32.2219 15.6953 32.2686L17.0136 30.3544Z" stroke="#B29D7E" stroke-width="1.89" stroke-linecap="round" stroke-linejoin="round"/>
</g>
<defs>
<clipPath id="clip0_562_6">
<rect width="31" height="33" fill="white"/>
</clipPath>
</defs>
</svg>
